<?xml version="1.0" encoding="utf-8"?>
<!-- Generator: Adobe Illustrator 24.0.2, SVG Export Plug-In . SVG Version: 6.00 Build 0)  -->
<svg version="1.1" id="Camada_1" xmlns="http://www.w3.org/2000/svg" xmlns:xlink="http://www.w3.org/1999/xlink" x="0px" y="0px"
	 viewBox="0 0 1080 1080" style="enable-background:new 0 0 1080 1080;" xml:space="preserve">
<style type="text/css">
	.st0{fill:#5EE584;}
	.st1{fill:#FFFFFF;}
</style>
<g>
	<g>
		<circle class="st0" cx="540" cy="540" r="540"/>
	</g>
	<path class="st1" d="M453.7,639.9c3.5-5.3,5.8-10,9.3-13.5c95.3-95.5,190.7-190.8,285.9-286.2c15.6-15.7,33.1-24.2,55.5-17.4
		c33.2,10,46.5,49.3,26,77.3c-3.4,4.7-7.6,9-11.7,13.1C710.5,521.3,602.4,629.5,494.2,737.6c-29.5,29.5-56.1,29.4-85.8-0.3
		C358.2,687.1,307.9,637,257.8,586.6c-20.4-20.5-23.6-46.2-8.8-67.3c17.6-25.1,51.6-29.4,75-8.4c17.5,15.7,33.6,32.9,50.2,49.5
		C399.5,585.7,424.7,611,453.7,639.9z"/>
</g>
</svg>
