<?xml version="1.0" encoding="utf-8"?>
<!-- Generator: Adobe Illustrator 24.0.2, SVG Export Plug-In . SVG Version: 6.00 Build 0)  -->
<svg version="1.1" id="Camada_1" xmlns="http://www.w3.org/2000/svg" xmlns:xlink="http://www.w3.org/1999/xlink" x="0px" y="0px"
	 viewBox="0 0 1080 1080" style="enable-background:new 0 0 1080 1080;" xml:space="preserve">
<style type="text/css">
	.st0{display:none;}
	.st1{display:inline;fill:#FFFFFF;}
	.st2{fill:#5EE584;}
	.st3{fill:#FFFFFF;}
</style>
<g id="check" class="st0">
	<path class="st1" d="M464,627.9c3.1-4.6,5.1-8.8,8.1-11.9c83.8-84,167.7-167.8,251.5-251.8c13.8-13.8,29.1-21.3,48.8-15.3
		c29.2,8.8,40.9,43.4,22.9,68c-3,4.1-6.7,7.9-10.3,11.5C690,523.6,594.9,618.7,499.8,713.8c-26,26-49.4,25.9-75.5-0.3
		c-44.2-44.2-88.4-88.3-132.4-132.5c-18-18-20.7-40.7-7.8-59.2c15.4-22,45.4-25.9,66-7.4c15.4,13.8,29.5,29,44.2,43.6
		C416.4,580.2,438.6,602.4,464,627.9z"/>
</g>
<g>
	<g id="Camada_1_1_">
		<g>
			<circle class="st2" cx="540" cy="540" r="540"/>
		</g>
	</g>
	<g id="Camada_3">
		<g>
			<path class="st3" d="M478.8,650.9c2.3-10.4,0.3-17.1-8.9-23.4c-28.4-19.6-44.8-47.3-50-81.5c-0.2-1.5-0.6-2.9-0.9-4.3
				c-26.8-1.8-49.2-20-49.3-50.4c-0.1-25.9,17.6-43.5,48.4-48.9c0.9-7.5,1-13.2-7.6-18.5c-23.2-14-21.7-47.8,2.2-61.3
				c4.9-2.8,5.7-5.7,6-10.6c1.4-22.8-5.6-41.9-20.7-59.4c-21.7-25.1-21.5-62.5-1.5-89.2c20.1-26.9,55.9-36.8,86.8-23.5
				c4.9,2.1,7.8,1.6,12-1.8c26.6-21.9,64.9-21.8,91.5,0.1c3.8,3.2,6.5,4,11.3,1.9c31.3-13.5,67.2-3.7,87.4,23.5
				c20.4,27.5,19.7,65.6-3.2,91c-16.2,18-20.7,38.6-18.9,61.5c0.1,1.9,2.2,4.3,4,5.3c12.9,7.2,20.1,18,20.2,32.7
				c0,14.7-7,25.9-20.2,32.6c-7.7,3.9-2.5,10.3-4.4,15.9c16.7,1.4,30.4,7.4,40.1,21c6.7,9.5,9.7,20.1,9,31.7
				c-1.5,25-19.6,42.1-49.1,46.1c-0.8,4-1.6,8.2-2.5,12.3c-6.6,30.7-22.4,55.7-48.1,73.6c-8.9,6.2-12.7,12.3-9.1,23.7
				c1.7,0,4.4,0,7.1,0c24.7,0.5,49.5-0.6,74,1.8c68.7,6.5,130.4,67.7,136,136.5c3.1,39.3,1.5,78.9,1.8,118.4c0.1,7.6-5,12-12.7,12.4
				c-2,0.1-4.1,0-6.1,0c-175,0-350.1,0-525.1,0c-15.6,0-18.7-3.1-18.7-18.8c0-29.8-0.1-59.6,0-89.4c0.2-80,54.6-145.5,133.6-158.5
				c20.9-3.4,42.7-1.8,64-2.4C464.2,650.7,471.3,650.9,478.8,650.9z M577.4,895.2c0-42.1,0.2-83.3-0.1-124.6
				c-0.1-11-5.7-20-14.4-26.7c-7.3-5.6-14.5-11.3-22-16.5c-3-2.1-6.7-3.7-10.3-4.4c-19.2-3.6-33.8-13.8-43.3-30.8
				c-2.9-5.2-4.8-11.1-7.3-16.9c-20.1,0-40.2-0.1-60.3,0c-76.3,0.3-135.6,59.6-135.8,135.8c-0.1,25.7,0,51.5,0,77.2
				c0,2.2,0.3,4.4,0.4,6.9C382,895.2,479.3,895.2,577.4,895.2z M797.7,895.4c0-2.4,0-4.1,0-5.9c0-27.3,0.2-54.5-0.1-81.8
				c-0.7-60.1-42.3-112.9-100.6-128c-31.6-8.2-63.9-2.7-96.1-4.7c-4.7,19-15.3,32.9-32.2,42.4c1.6,1.4,2.6,2.2,3.6,2.9
				c21.4,14.6,30.3,35,29.8,60.8c-0.7,35.4-0.2,70.8-0.2,106.2c0,2.7,0,5.3,0,8.1C667.6,895.4,732,895.4,797.7,895.4z M639.2,356.9
				c0-9.2-0.7-17.9,0.1-26.4c2-20.2,11.5-36.9,24.6-52.3c16.1-18.8,15.2-45.3-1.1-63.6c-16.1-18.2-42.2-21.5-63.2-8.1
				c-10.1,6.5-14,5.9-22.1-3.4c-19.7-22.6-53.6-22.7-73.3-0.3c-8.7,9.9-11.9,10.3-23.3,3.1c-27.3-17-63-3.9-72.5,26.8
				c-5.4,17.5-1.7,33.4,10.3,47c13.2,15,21.7,32,23.6,51.9c0.8,8.3,0.1,16.6,0.1,25.3C508.3,356.9,572.9,356.9,639.2,356.9z
				 M443.5,430.8c-0.2,1.9-0.6,3.8-0.6,5.7c0,31.6-0.1,63.2,0.1,94.8c0,6.1,0.9,12.2,2.2,18.1c11,48.6,57,82.1,105,76.5
				c51-5.9,88.1-46.8,88.4-97.6c0.2-30.3,0-60.6,0-90.9c0-2.2-0.3-4.4-0.4-6.7C573,430.8,508.6,430.8,443.5,430.8z M540.8,381.7
				c-34.9,0-69.8,0-104.7,0c-2.3,0-4.6-0.2-6.9,0.2c-6.6,1.2-10.6,5.3-10.6,12c0,6.8,4,10.8,10.6,12c2.2,0.4,4.6,0.2,6.9,0.2
				c69.8,0,139.6,0,209.5,0c2.3,0,4.6,0.2,6.9-0.2c6.6-1.2,10.6-5.3,10.6-12s-4-10.8-10.6-12c-2.2-0.4-4.6-0.2-6.9-0.2
				C610.6,381.7,575.7,381.7,540.8,381.7z M504.1,645.3c0,7.7-0.3,14.1,0.1,20.4c1,17.5,15.1,32,32.6,33.9
				c17.8,2,35.1-9.4,39.1-26.9c1.9-8.5,1.5-17.5,2.3-27.5C552.9,652.6,528.8,652.6,504.1,645.3z M418.1,467.8
				c-14.3,0.3-24.6,11.1-24.1,24.9c0.4,13.1,11.2,23.4,24.1,22.8C418.1,499.6,418.1,483.7,418.1,467.8z M663.6,467.7
				c0,16.4,0,32.3,0,48.2c14.3-1.1,23.8-11.1,24-24.2C687.8,481.2,678.2,467.3,663.6,467.7z"/>
			<path class="st3" d="M528.4,797.6c-13.3-0.1-24.3-11.2-24.3-24.4c0-13.7,11.3-24.7,25-24.5c13.3,0.3,24.1,11.5,23.9,24.8
				C552.8,786.8,541.7,797.7,528.4,797.6z"/>
			<path class="st3" d="M504.1,845.4c0.6-13.3,12-23.8,25.3-23.3c13.2,0.5,23.9,11.9,23.5,25.2c-0.4,13.6-12.2,24.4-25.7,23.7
				C514,870.3,503.5,858.7,504.1,845.4z"/>
		</g>
	</g>
</g>
</svg>
