<?xml version="1.0" encoding="utf-8"?>
<!-- Generator: Adobe Illustrator 24.0.2, SVG Export Plug-In . SVG Version: 6.00 Build 0)  -->
<svg version="1.1" id="Camada_1" xmlns="http://www.w3.org/2000/svg" xmlns:xlink="http://www.w3.org/1999/xlink" x="0px" y="0px"
	 viewBox="0 0 1080 1080" style="enable-background:new 0 0 1080 1080;" xml:space="preserve">
<style type="text/css">
	.st0{fill:#5EE584;}
	.st1{display:none;}
	.st2{display:inline;fill:#FFFFFF;}
	.st3{display:inline;}
	.st4{fill:#FFFFFF;}
	.st5{fill:#E26060;}
</style>
<g id="Camada_1_1_">
	<g>
		<circle class="st0" cx="540" cy="540" r="540"/>
	</g>
</g>
<g id="check" class="st1">
	<path class="st2" d="M464,627.9c3.1-4.6,5.1-8.8,8.1-11.9c83.8-84,167.7-167.8,251.5-251.8c13.8-13.8,29.1-21.3,48.8-15.3
		c29.2,8.8,40.9,43.4,22.9,68c-3,4.1-6.7,7.9-10.3,11.5C690,523.6,594.9,618.7,499.8,713.8c-26,26-49.4,25.9-75.5-0.3
		c-44.2-44.2-88.4-88.3-132.4-132.5c-18-18-20.7-40.7-7.8-59.2c15.4-22,45.4-25.9,66-7.4c15.4,13.8,29.5,29,44.2,43.6
		C416.4,580.2,438.6,602.4,464,627.9z"/>
</g>
<g id="cook" class="st1">
	<g class="st3">
		<path class="st4" d="M486.1,637.5c2-9.2,0.3-15-7.9-20.6c-25-17.2-39.4-41.6-44-71.7c-0.2-1.3-0.5-2.6-0.8-3.8
			c-23.6-1.6-43.3-17.6-43.4-44.4c-0.1-22.8,15.5-38.3,42.6-43c0.8-6.6,0.9-11.6-6.7-16.3c-20.4-12.3-19-42,1.9-53.9
			c4.3-2.4,5-5,5.3-9.3c1.3-20.1-4.9-36.9-18.2-52.3c-19.1-22.1-18.9-55-1.3-78.5c17.7-23.7,49.1-32.3,76.3-20.7
			c4.3,1.9,6.9,1.4,10.5-1.6c23.4-19.3,57.1-19.2,80.5,0.1c3.4,2.8,5.7,3.5,9.9,1.7c27.6-11.9,59.1-3.3,76.9,20.6
			c17.9,24.2,17.3,57.7-2.8,80.1c-14.2,15.8-18.2,33.9-16.6,54.1c0.1,1.7,1.9,3.8,3.5,4.7c11.3,6.3,17.7,15.8,17.7,28.8
			c0,13-6.2,22.8-17.8,28.6c-6.7,3.4-2.2,9-3.9,14c14.7,1.2,26.8,6.5,35.3,18.5c5.9,8.4,8.6,17.7,8,27.9c-1.3,22-17.2,37-43.2,40.6
			c-0.7,3.5-1.4,7.2-2.2,10.8c-5.8,27-19.7,49-42.3,64.7c-7.8,5.4-11.1,10.8-8,20.8c1.5,0,3.9,0,6.2,0c21.7,0.4,43.6-0.5,65.1,1.6
			c60.5,5.8,114.7,59.5,119.6,120.1c2.8,34.5,1.4,69.4,1.6,104.1c0,6.7-4.4,10.5-11.2,10.9c-1.8,0.1-3.6,0-5.4,0
			c-154,0-307.9,0-461.9,0c-13.7,0-16.4-2.8-16.4-16.5c0-26.2,0-52.4,0-78.7c0.1-70.4,48-128,117.5-139.4c18.4-3,37.5-1.6,56.3-2.1
			C473.3,637.4,479.5,637.5,486.1,637.5z M572.9,852.5c0-37,0.2-73.3-0.1-109.6c-0.1-9.7-5-17.5-12.7-23.5
			c-6.4-4.9-12.8-9.9-19.4-14.5c-2.7-1.8-5.9-3.3-9-3.9c-16.9-3.2-29.7-12.1-38-27.1c-2.6-4.6-4.2-9.7-6.4-14.9c-17.6,0-35.3,0-53,0
			c-67.1,0.2-119.3,52.4-119.5,119.5c-0.1,22.6,0,45.3,0,67.9c0,1.9,0.2,3.9,0.4,6C401.1,852.5,486.6,852.5,572.9,852.5z
			 M766.6,852.6c0-2.1,0-3.6,0-5.2c0-24,0.2-48-0.1-71.9c-0.6-52.9-37.2-99.3-88.5-112.6c-27.8-7.2-56.2-2.3-84.5-4.2
			c-4.1,16.7-13.5,28.9-28.3,37.3c1.4,1.2,2.3,2,3.2,2.6c18.8,12.9,26.7,30.8,26.2,53.4c-0.6,31.1-0.2,62.3-0.2,93.4
			c0,2.3,0,4.7,0,7.1C652.2,852.6,708.9,852.6,766.6,852.6z M627.3,379c0-8.1-0.6-15.7,0.1-23.2c1.7-17.8,10.1-32.5,21.6-46
			c14.1-16.6,13.3-39.9-0.9-56c-14.2-16-37.1-18.9-55.6-7.1c-8.9,5.7-12.3,5.2-19.5-3c-17.3-19.9-47.2-20-64.5-0.3
			c-7.6,8.7-10.4,9.1-20.5,2.8c-24-15-55.4-3.4-63.8,23.6c-4.7,15.4-1.5,29.4,9.1,41.3c11.6,13.2,19.1,28.2,20.7,45.7
			c0.7,7.3,0.1,14.6,0.1,22.3C512.1,379,569,379,627.3,379z M455.1,444c-0.2,1.7-0.5,3.4-0.5,5c0,27.8-0.1,55.6,0.1,83.4
			c0,5.3,0.8,10.8,2,16c9.6,42.8,50.1,72.2,92.3,67.3c44.8-5.2,77.5-41.1,77.7-85.8c0.2-26.7,0-53.3,0-80c0-1.9-0.3-3.8-0.4-5.9
			C569.1,444,512.4,444,455.1,444z M540.7,400.8c-30.7,0-61.4,0-92.1,0c-2,0-4.1-0.2-6,0.2c-5.8,1.1-9.3,4.6-9.3,10.6
			c0,6,3.5,9.5,9.3,10.6c2,0.4,4,0.2,6,0.2c61.4,0,122.8,0,184.3,0c2,0,4.1,0.2,6-0.2c5.8-1.1,9.3-4.6,9.3-10.6s-3.5-9.5-9.3-10.6
			c-2-0.4-4-0.2-6-0.2C602.1,400.8,571.4,400.8,540.7,400.8z M508.5,632.6c0,6.8-0.3,12.4,0,17.9c0.9,15.4,13.3,28.1,28.6,29.8
			c15.6,1.7,30.8-8.3,34.4-23.7c1.7-7.5,1.3-15.4,2-24.2C551.3,639,530.2,639,508.5,632.6z M432.8,476.5
			c-12.5,0.3-21.6,9.8-21.2,21.9c0.4,11.5,9.9,20.5,21.2,20.1C432.8,504.5,432.8,490.5,432.8,476.5z M648.7,476.4
			c0,14.4,0,28.4,0,42.4c12.6-1,20.9-9.7,21.1-21.3C670,488.3,661.5,476,648.7,476.4z"/>
		<path class="st4" d="M529.8,766.6c-11.7-0.1-21.4-9.8-21.4-21.5c0-12,9.9-21.8,22-21.5c11.7,0.2,21.2,10.1,21,21.8
			C551.3,757.1,541.5,766.7,529.8,766.6z"/>
		<path class="st4" d="M508.4,808.7c0.5-11.7,10.5-20.9,22.3-20.5c11.7,0.4,21,10.5,20.7,22.1c-0.3,11.9-10.7,21.5-22.7,20.8
			C517.1,830.5,507.9,820.3,508.4,808.7z"/>
	</g>
</g>
<g id="moto" class="st1">
	<g class="st3">
		<path class="st4" d="M251.5,315.6c3.8-9.5,11-12.7,21-12.6c42.4,0.3,84.9,0.1,127.3,0.1c15,0,20.8,5.8,20.9,20.8
			c0,32.5,0,65,0,97.5c0,16.9,0,17,16.7,16.9c18.1-0.1,34.5,5,49.1,15.6c23.2,16.9,35.2,39.9,35.7,68.7c0.1,4.5-1.4,8.4-4.3,11.9
			c-12.6,14.8-20.3,32-24.7,50.6c-3,12.7,4.4,21.9,17.5,22.1c15.6,0.2,31.2,0.1,46.8,0.1c9.4,0,18.8-0.2,28.2,0.1
			c4.6,0.1,6.3-1.5,6.2-6.2c-0.2-13.7-0.1-27.4-0.1-41.1c0-46.8,0.3-93.5-0.1-140.3c-0.1-18.9-2.5-37.5-11.5-54.6
			c-7.4-14-18.3-23.7-34-27c-3.6-0.8-5.1-2.5-5-6.1c0.2-7.5,0-15,0-22.5c0-6.1,1-6.9,7-6c23.7,3.8,42.2,15.8,56,35.3
			c1,1.4,2.1,2.7,2.8,4.2c2,4.2,4.2,4.6,8.2,1.9c8.3-5.6,17.6-8.3,27.7-8.1c10.7,0.1,21.4,0,32.1,0c12,0.1,18.5,6.5,18.5,18.5
			c0.1,21.8,0,43.6,0.1,65.3c0,3.9-0.6,7.6-3.1,10.6c-2.3,2.8-1.3,4.4,0.9,6.6c25,24.7,36.9,54.6,36.1,89.7
			c-0.3,13.1,0.1,26.3-0.1,39.4c-0.1,4.4,1,6.3,5.9,6.5c46.9,2,87.6,39.1,94.4,85.7c8.5,57.9-31.1,109.8-89.3,117
			c-43.1,5.3-87.6-20.4-104.1-60.6c-2.1-5.2-4.9-6.8-10.4-6.8c-55.8,0.2-111.5,0.2-167.3,0c-5.6,0-8,1.9-10.4,7
			c-16.9,35.8-45.1,57.2-84.6,60.3c-41.2,3.3-73.2-13.9-95.6-48.8c-7.7-11.9-11.2-25.3-14.3-38.9c0-9,0-18,0-27
			c0.3-0.7,0.7-1.4,0.8-2.1c5.7-32.3,22.7-56.7,51.1-73.1c4.3-2.5,3.6-4.8,1.4-8.1c-10.5-16-24.5-28.4-40.8-38
			c-5.2-3.1-9.5-6.5-12.5-11.7C251.5,457.6,251.5,386.6,251.5,315.6z M319,541c8.6,9.1,15.2,19.1,21.1,29.6c1.6,2.8,4,2.9,6.8,2.9
			c7.7-0.1,15.4-0.1,23,1.1c45.5,7.2,82.8,48.4,84.4,93.9c0.2,5.6,2.6,6.3,7.2,6.3c61.8-0.1,123.5,0.2,185.3-0.2
			c23.8-0.2,47.6-2.6,70.5-10c20.3-6.5,38.7-16.2,52.7-33c3.5-4.3,2.7-6.5-1.2-9.5c-16.2-12.2-34.2-16.5-54.1-13.3
			C701.3,611,693,603.6,693,590c0-21.6,0.1-43.2,0-64.8c-0.1-25.5-9-47.3-28-64.6c-9.8-9-21.2-15.4-34.2-18.8c-3.8-1-5.3,0.1-5.1,4
			c0.1,1.7,0,3.4,0,5.1c0,57.3,0,114.5,0,171.8c0,12.2-6.6,18.9-18.7,18.9c-33.2,0-66.5,0.2-99.7,0c-30.6-0.2-54.5-29.3-48.9-59.3
			c2.2-12.1,6.3-23.6,11.3-34.7c3.2-7.2,3.2-7.3-4.7-7.3c-46.6,0-93.1,0-139.7,0C323.4,540,321.5,539.5,319,541z M352.9,607.6
			c-36.5,0-67.2,30.5-67.4,67.1c-0.3,36.5,30.7,67.7,67.4,67.7c36.4,0,67.2-30.6,67.5-67.1C420.5,638.7,389.6,607.6,352.9,607.6z
			 M386.6,387.9c0-15-0.1-30,0-45.1c0-4-1.3-5.8-5.5-5.7c-7.9,0.2-15.8,0.1-23.7,0.1c-3,0-4.5,1.3-4.4,4.4c0,4.3,0.1,8.6-0.1,13
			c-0.5,9.6-7.4,16.2-16.7,16.4c-9.5,0.1-16.7-6.6-17.2-16.4c-0.2-4.1-0.2-8.3-0.1-12.4c0.1-3.6-1.5-5-5.1-5c-7.5,0.1-15,0.2-22.5,0
			c-4.8-0.2-6.1,1.9-6,6.4c0.1,29.5,0.2,59,0,88.4c0,4.9,1.5,6.6,6.5,6.5c29.5-0.2,59-0.2,88.4,0c5,0,6.5-1.7,6.4-6.6
			C386.4,417.2,386.5,402.5,386.6,387.9z M385,505.9c31.1,0,62.3,0,93.4,0c6.1,0,6.5-0.7,3.7-5.9c-7.9-14.6-19.9-23.8-36.3-26.5
			c-13.4-2.2-27-0.9-40.5-1c-37.5-0.2-75.1,0-112.6-0.2c-5.5,0-7.9,1.4-7.5,7.2c0.5,6.4,0.4,12.8,0,19.1c-0.4,5.7,1.6,7.4,7.3,7.4
			C323.4,505.7,354.2,505.9,385,505.9z M794.4,673.4c-0.3-2.2-0.7-6-1.2-9.7c-0.5-3.8-1.9-4-4.6-1.4c-5.8,5.7-12,10.8-18.7,15.3
			c-28.9,19.3-61.6,26.8-95.5,30.1c-5.8,0.6-6,0.6-2.6,5.7c15.5,23.4,46.3,34.3,73.9,26.1C774.4,731,794.4,704.4,794.4,673.4z
			 M659.2,387.7c0-18,0-18-16.9-16.7c-9.5,0.7-17,8.6-16.5,17.3c0.5,11.3,9.5,16.6,27.3,16.1c6.1-0.1,6.1-0.1,6.1-14
			C659.2,389.5,659.2,388.6,659.2,387.7z"/>
		<path class="st4" d="M369.9,674.9c0.1,9.7-7.3,17.1-16.9,17.2c-9.7,0.1-17.1-7.3-17.2-16.9c-0.1-9.7,7.3-17.1,16.9-17.2
			C362.4,657.9,369.9,665.3,369.9,674.9z"/>
	</g>
</g>
<g id="pedido" class="st1">
	<g class="st3">
		<path class="st4" d="M807,323.8c0,159.5,0,319.1,0.1,478.6c0,3.9-0.9,4.8-4.8,4.8c-172-0.1-344-0.1-515.9-0.1
			c-7.1-3.5-10.8-8.9-10.8-17.3c0.1-152.2,0-304.4,0.1-456.6c0-31.6,25.9-57.4,57.5-57.4c138.9-0.1,277.8,0,416.7,0
			c11.2,0,21.5,3.2,30.8,9.2C795.1,294.1,803.2,307.5,807,323.8z M541.7,426.9c-75.5,0-151,0-226.5,0c-7.5,0-7.6,0-7.6,7.4
			c0,111.3,0,222.5,0,333.8c0,7.4,0,7.4,7.6,7.4c150.9,0,301.7,0,452.5,0c7.8,0,7.8,0,7.8-7.7c0-111.1,0-222.2,0-333.3
			c0-7.7,0-7.7-7.8-7.7C692.4,426.9,617,426.9,541.7,426.9z M541.6,394.9c75.2,0,150.3,0,225.5,0c8.4,0,8.4,0,8.4-8.6
			c0-16.2,0-32.5,0-48.7c-0.1-19-11-30-30-30c-136,0-272,0-408,0c-19,0-29.9,11-29.9,30c0,16.4,0,32.8,0,49.3c0,8.1,0,8.1,8,8.1
			C390.9,394.9,466.2,394.9,541.6,394.9z"/>
		<path class="st4" d="M424.6,601.1c-11.4,0-22.8,0.2-34.2,0c-20.9-0.4-38.4-18.1-38.9-38.9c-0.1-5-0.1-10,0-15
			c0.1-3.5-1.3-4.9-4.8-5.1c-10.2-0.8-16.3-7.2-16-16.6c0.3-8.7,6.8-15.1,16.4-15.1c4.8,0,5.5-2.8,6.5-6.3
			c7.4-27.9,25-46.4,52.9-53.7c39.7-10.5,78.6,13.1,89.1,53.1c1.2,4.7,2.8,7,8.1,7c8.3,0,14.9,7.3,15,15.5c0.2,8.2-6.1,15.5-14.5,16
			c-4.8,0.3-6.3,2.1-6.2,6.7c0.1,5-0.2,10-0.5,15c-1.4,21.1-18.5,37.3-39.6,37.6C446.7,601.2,435.7,601.1,424.6,601.1
			C424.6,601.1,424.6,601.1,424.6,601.1z M425,542c-11.7,0-23.5,0.1-35.2,0c-4.2-0.1-6.1,1.5-5.9,5.7c0.2,4-0.1,8,0.1,11.9
			c0.3,6.2,3.2,9.4,9.3,9.4c20.9,0.2,41.8,0.2,62.7,0c5.9,0,9.2-3.7,9.4-9.6c0.2-3.8-0.2-7.6,0.1-11.4c0.4-4.9-1.8-6.3-6.4-6.2
			C447.8,542.2,436.4,542,425,542z M424.5,510c11.2,0,22.5,0,33.7,0c5.1,0,5.6-0.9,3.9-5.4c-5.8-14.5-21.6-24.8-37.7-24.6
			c-16.3,0.1-31.8,10.7-37.4,25.1c-1.5,3.7-0.6,5,3.4,5C401.6,510,413,510,424.5,510z"/>
		<path class="st4" d="M491.1,714c-0.1,8.5-4.8,14.1-14.1,16.4c-18.9,4.6-37.9,9.1-56.9,13.7c-13.4,3.2-26.8,6.5-40.3,9.6
			c-14.8,3.4-24.6-6.3-21.1-21.1c7.6-32.2,15.3-64.5,23.2-96.6c3.2-13.1,12-17.7,24.6-12.8c39.9,15.5,67.5,43.3,83,83.2
			C490.5,708.9,491.3,711.5,491.1,714z M399.5,715.7c0,0,0.7-0.1,1.3-0.3c15.4-3.7,30.9-7.5,46.3-11.1c4.6-1,4.7-2.8,2.5-6.3
			c-9.1-14.4-20.9-26.1-35.2-35.3c-4.2-2.7-5.4-1.5-6.4,2.9c-3,13.3-6.3,26.5-9.5,39.8c-0.6,2.7-1.3,5.4-1.8,8.1
			C396.4,715.1,396.6,716.4,399.5,715.7z"/>
		<path class="st4" d="M655.7,509.7c-22.8,0-45.6,0-68.4,0c-2.1,0-4.2,0.1-6.2-0.2c-8.3-1.1-14.5-7.5-14.8-15.5
			c-0.4-7.8,5.3-14.8,13.6-16.5c2.3-0.5,4.8-0.5,7.2-0.5c45.8,0,91.5,0,137.3,0c1.7,0,3.5,0,5.2,0.1c9.8,1,16,7.9,15.7,17.2
			c-0.4,8.8-7.3,15.1-17,15.3c-12.1,0.2-24.2,0-36.3,0.1C679.8,509.7,667.7,509.7,655.7,509.7z"/>
		<path class="st4" d="M655.7,571.9c-23,0-45.9,0-68.9,0c-2.1,0-4.2,0.1-6.2-0.3c-8.3-1.3-14.3-8-14.4-15.9
			c-0.1-7.7,5.5-14.4,13.6-16c2.2-0.4,4.5-0.5,6.7-0.5c46.1,0,92.2,0,138.3,0c1.7,0,3.5,0,5.2,0.2c9.5,1.2,15.5,8,15.2,17.1
			c-0.3,8.6-7.1,15.1-16.5,15.3c-11.7,0.2-23.5,0.1-35.2,0.1C680.9,571.9,668.3,571.9,655.7,571.9z"/>
		<path class="st4" d="M655.6,703c24.5,0,49.1-0.1,73.6,0c9,0,15.6,6.6,15.9,15.1c0.3,8.8-5.4,15.6-14.3,16.7
			c-2.4,0.3-4.8,0.5-7.2,0.5c-45.3,0-90.6,0-135.8,0c-7.5,0-14.6-0.8-19.1-8c-6.6-10.8,0.8-24.2,13.8-24.4
			c19.9-0.2,39.8-0.1,59.6-0.1C646.6,703,651.1,703,655.6,703C655.6,703,655.6,703,655.6,703z"/>
		<path class="st4" d="M609.8,640.7c8.6,0,17.3-0.1,25.9,0c9.5,0.1,16.4,6.4,17,15.3c0.5,8.5-6.1,16.1-15.6,16.6
			c-18.4,1-36.9,1-55.3,0c-9.5-0.5-16-8.2-15.4-16.8c0.6-8.8,7.5-15.1,17.1-15.2C592.2,640.7,601,640.7,609.8,640.7z"/>
		<path class="st4" d="M714,673.4c-5.5-0.3-11-0.2-16.5-0.9c-8.1-0.9-14.2-8.3-13.9-16.1c0.3-8.2,6.8-15.3,15.1-15.6
			c10.5-0.3,21.1-0.3,31.6,0c8.3,0.2,14.6,6.9,15,15c0.4,8.6-5.2,15.5-13.6,16.8c-1.4,0.2-2.7,0.4-4.1,0.4c-4.5,0-9,0-13.5,0
			C714,673.2,714,673.3,714,673.4z"/>
		<path class="st4" d="M437.8,335c27.3,0,54.6,0,81.9,0c10.4,0,17.4,6,18,14.8c0.6,8.6-4.5,15.4-13.1,17.2c-2.5,0.5-5.1,0.5-7.7,0.5
			c-52.7,0-105.4,0-158,0c-2.8,0-5.5,0.1-8.2-0.6c-8-2-12.8-8.1-12.7-16.1c0.1-7.6,5.1-13.6,12.9-15.3c2.5-0.5,5.1-0.6,7.7-0.6
			C385,334.9,411.4,335,437.8,335z"/>
		<path class="st4" d="M683,351.4c-0.1,8.9-7.5,16.2-16.2,16c-8.9-0.2-15.8-7.6-15.6-16.6c0.2-8.7,7.4-15.8,16-15.7
			C675.9,335.1,683,342.4,683,351.4z"/>
		<path class="st4" d="M745.2,351.4c-0.1,8.9-7.4,16.3-16.2,16c-8.9-0.2-15.8-7.6-15.7-16.6c0.2-8.7,7.3-15.8,15.9-15.8
			C738.1,335.1,745.3,342.4,745.2,351.4z"/>
	</g>
</g>
<g id="x" class="st1">
	<g class="st3">
		<g>
			<path class="st5" d="M501.8,65c26,0,52,0,78.1,0c1.8,0.4,3.6,1.1,5.4,1.2c85.5,8.1,164.3,35.7,232.7,87.6
				c158.8,120.5,225.8,281.1,190,477.2c-46.3,253.9-287,419.8-542,380.5C274.7,982,116.2,832.7,75.4,644c-4.6-21.2-7-42.7-10.4-64.1
				c0-26,0-52,0-78.1c1.6-11.3,3.1-22.7,4.8-34C99.7,274.2,247.5,116.9,438.6,75.2C459.5,70.7,480.7,68.4,501.8,65z M355.3,688.1
				c0.1,21.7,16.6,38.1,38.3,38.3c12.4,0.1,21.8-5.3,30.3-13.8c35.6-35.8,71.4-71.4,107.1-107.1c9.9-9.9,9.9-9.9,20.2,0.3
				c24.5,24.5,49,49.1,73.6,73.6c12,12,23.9,24.3,36.2,36.1c12.4,11.9,28.8,14.4,43.8,7.3c14.8-7,22.8-21.5,21.5-38.8
				c-0.8-10.9-6.6-19-14-26.4C676,621.4,640,585.1,603.7,549.2c-6.2-6.1-7.3-10.4-0.3-16.4c6.3-5.4,11.9-11.7,17.8-17.6
				c30.9-30.9,61.8-61.7,92.6-92.7c13.2-13.3,16.3-29.6,9-45.1c-11.4-24.6-42.9-29.9-63-10.1c-33.9,33.5-67.5,67.4-101.3,101.1
				c-4.2,4.2-8.4,8.2-12.5,12.5c-3.4,3.6-6.7,4.1-10.3,0.2c-1.9-2-4-3.9-5.9-5.9c-35.7-35.7-71.5-71.3-107.1-107.1
				c-11.6-11.6-25.1-15.9-40.7-11.1c-28.1,8.6-36.3,43-15.2,64.4c35,35.5,70.5,70.6,105.7,105.9c15,15.1,15.1,11.8,0.3,26.7
				c-34.8,34.9-69.6,69.7-104.5,104.5C360.2,666.7,354.9,676.1,355.3,688.1z"/>
		</g>
	</g>
</g>
<g id="Camada_7">
	<g>
		<path class="st4" d="M476.6,845.5c-72,0-144,0-216.1,0c-12.5,0-15-2.5-15-15.2c0-83.3,0.4-166.6-0.2-249.8
			c-0.2-22.4,2.6-43.7,9.4-65.1c12-38,22.7-76.4,34.2-114.6c1.6-5.2,1-7.7-4.3-9.6c-5.1-1.7-8.8-5.9-11.9-10.3
			c-10.2-14.8-10.4-38.6-0.3-53.5c5.9-8.7,13.7-13.4,24.7-13.3c35.6,0.3,71.2,0.1,106.8,0.1c4,0,7.6-0.8,11.1-2.8
			c29-16,58.2-31.7,87.2-47.8c10.3-5.7,20.9-8.6,32.8-8.5c64.4,0.2,128.9,0.1,193.4,0.1c8.1,0,8.1,0,8.3-7.9
			c0.2-8.1,3.6-11.7,11.6-11.7c25.4-0.1,50.7-0.1,76.1,0c7.6,0,11.3,3.7,11.3,11.4c0.1,41.7,0.1,83.5,0,125.2
			c0,7.7-3.7,11.4-11.2,11.5c-25.6,0.1-51.2,0.1-76.7,0c-7.3,0-10.8-3.8-11-11c-0.1-3.9-0.4-7.8,0-11.7c0.6-5.6-1.9-7.5-7.1-6.7
			c-0.4,0.1-0.8,0-1.2,0c-9.6,0-9.4,0-12.3,9.5c-6.6,22.1-21.6,35.2-44.2,39.1c-5,0.9-6.1,2-4.6,6.9c12.8,42.7,25.2,85.5,37.9,128.2
			c1.9,6.5,2.9,13.1,2.9,19.9c-0.1,90.8,0,181.7-0.1,272.5c0,12.1-2.7,14.8-14.8,14.8C621,845.5,548.8,845.5,476.6,845.5z
			 M627.6,417.2c-3.1-0.3-4.3,1.5-5.9,2.7c-13.5,10.3-26.7,21-40.4,31c-15.8,11.5-36.9,10.9-52-0.8c-15.3-11.8-21.3-31.9-14.4-50
			c2.1-5.4,1-6.5-4.5-6.5c-63.4,0.1-126.8,0.2-190.3-0.1c-5.9,0-8.1,2.1-9.7,7.5c-12.5,43-25.3,85.9-37.9,128.8
			c-3,10.2-6.7,20.1-6.6,31c0.1,85.3,0.1,170.6,0.1,255.9c0,8.2,0,8.2,8,8.2c102.3,0,204.6,0,306.8,0c8.4,0,8.4,0,8.4-8.4
			c0-85.7,0-171.4-0.1-257.1c0-8.3,1.2-16.2,3.5-24.1c9.4-31.3,18.6-62.7,27.9-94.1C623,433.3,625.3,425.3,627.6,417.2z
			 M455.7,313.1c0.1,0.4,0.2,0.8,0.3,1.1c17,0,33.9,0,50.9,0c30.3,0,60.5,0,90.8,0c6.9,0,11,2.9,11.9,8.2c0.9,4.8-1.4,8.2-4.6,11.4
			c-21.3,21.2-42.6,42.4-63.8,63.8c-9.9,10-10.7,23.4-2.3,33.1c8.3,9.6,21.7,10.2,33.1,1.3c14.5-11.3,29.7-21.9,43.4-34.1
			c12.9-11.6,26.6-16.2,43.9-15.2c23.2,1.3,35.7-10.8,38.1-33.9c0.9-8.8,7-14.6,15.8-14.9c5.7-0.2,11.5-0.3,17.2,0
			c4.8,0.3,6.5-1.3,6.4-6.3c-0.3-15.1-0.3-30.3,0-45.4c0.1-5.2-1.7-6.6-6.7-6.6c-65,0.1-130.1,0.1-195.1,0.1c-6,0-11.9,0.8-17.2,3.6
			C497,290.7,476.4,301.9,455.7,313.1z M649.3,423.2c-0.4,0-0.8,0-1.3,0.1c-0.6,1.7-1.2,3.5-1.7,5.2c-10.2,34.5-20.4,69-30.6,103.5
			c-2.8,9.4-6.1,18.6-6,28.7c0.1,80.8,0.1,161.6,0.1,242.4c0,1.9-0.8,4,1.2,6.3c7.6-7.7,14.9-15.4,22.6-22.7
			c3.5-3.4,4.9-6.9,4.9-11.8c-0.1-66.5-0.1-133-0.1-199.5c0-2.3-0.1-4.5,0.2-6.7c0.7-5.3,4.8-8.8,10.1-8.8c5.3,0,9.4,3.5,10.1,8.8
			c0.3,2.2,0.1,4.5,0.1,6.7c0,62.2,0.5,124.4-0.4,186.6c-0.2,14.3,2.8,25.2,14.3,33.9c5,3.8,9.1,8.9,14.6,14.4c0-3,0-4.2,0-5.4
			c0-81.6,0-163.3,0-244.9c0-5.6-1.1-11-2.7-16.3c-6.9-23.5-13.8-47.1-20.8-70.6C659.2,456.4,654.2,439.8,649.3,423.2z M574.4,334.8
			c-3.6,0-5.6,0-7.6,0c-21.9,0-43.8,0-65.7,0c-66.7,0-133.4,0-200.1,0c-8.4,0-12.3,3.1-14.1,11.4c-0.4,2-1,4-1,6
			c-0.2,9.8,3.1,21.2,14,21.1c77.1-0.3,154.3-0.2,231.4-0.2c2.5,0,4.8,0,6.8-2C549.8,359.4,561.5,347.7,574.4,334.8z M757.1,309.2
			c0,16.2,0.1,32.3-0.1,48.5c0,4.2,1.3,5.8,5.6,5.8c15.6-0.2,31.1-0.2,46.6,0c4.6,0.1,6-1.6,5.9-6.1c-0.1-31.7-0.1-63.4,0-95.1
			c0-4.5-1.3-6.2-5.9-6.1c-15.3,0.2-30.7,0.3-46,0c-5-0.1-6.3,1.7-6.3,6.4C757.3,278.1,757.1,293.6,757.1,309.2z M624.6,824.5
			c16.6,0,31.6,0,48,0c-7.8-7.7-14.7-14.3-21.5-21.1c-1.8-1.8-3.3-1.9-5.1,0C639.3,810.1,632.5,816.8,624.6,824.5z"/>
		<path class="st4" d="M423.2,572.8c2.1,12.1-0.5,26.3-9.4,38.5c-12,16.4-8.8,34.5-7.5,52.5c1.5,21.2,3.1,42.4,4.6,63.5
			c0.5,6.5,1.2,13,1.2,19.6c0,16.7-12.8,29.5-29.4,29.8c-6.1,0.1-12.3,0.1-18.4,0c-15.9-0.3-29.1-13.2-28.8-29.1
			c0.3-15.7,1.8-31.4,2.9-47.1c1.5-22,3-44,4.5-66c0.2-2.7-0.4-5.3-1.6-7.7c-0.3-0.5-0.5-1.1-0.9-1.6c-15.3-22.1-18.6-46.9-16.3-73
			c0.7-7.6,3.8-11.9,10.1-12c6.6-0.1,10.4,4.2,10.4,12.3c0.1,7.2,0.1,14.3,0,21.5c-0.1,3.8,1,5.6,5.2,5.6c16.4-0.3,13.3,1.7,13.6-13
			c0.1-5.3-0.1-10.6,0.1-15.9c0.2-6.5,4.4-10.5,10.4-10.3c5.7,0.1,9.7,4.1,9.9,10.3c0.2,8,0.2,15.9,0,23.9c-0.1,3.6,1.3,5.1,5,5.1
			c16.7-0.2,13.5,1.6,13.8-12.8c0.1-5.3-0.1-10.6,0.1-15.9c0.2-6.5,4.3-10.5,10.3-10.5c6,0,9.9,4.1,10.1,10.7
			C423.3,557.3,423.2,563.6,423.2,572.8z M390.7,740c-0.1,0-0.1,0-0.2,0c-1.7-25.5-3.5-51-5.2-76.4c-0.4-5.9-0.9-11.8-1.3-17.7
			c-0.3-4.6-2-7.4-7.2-6.6c-1.4,0.2-2.9,0-4.3,0c-8.8,0-9.1,0.4-9.6,9.3c-0.6,10.2-1.4,20.4-2.1,30.6c-1.5,22-3,44-4.3,66.1
			c-0.4,6.8,2.5,10.4,8.9,10.9c5.5,0.4,11.1,0.5,16.5,0c5.6-0.5,8.9-3.8,8.7-9.8C390.7,744.1,390.7,742.1,390.7,740z M373.7,600
			c-2.4,0-4.9,0-7.3,0c-15.4,0-15.3-0.1-8.2,14c1.8,3.6,4.1,5.1,8.1,4.9c5.3-0.3,10.6-0.2,15.9,0c3,0.1,5-0.9,6.3-3.7
			c1.7-3.7,3.6-7.3,5.4-10.9c1.4-2.8,0.8-4.2-2.5-4.1C385.5,600,379.6,600,373.7,600z"/>
		<path class="st4" d="M511.6,609c0,15.1,0,30.3,0,45.4c0,21.9,3.9,43.5,5.4,65.3c0.8,10.8,3.7,21.4,2,32.3
			c-2.3,14.6-14.3,24.6-29.1,24.8c-5.3,0.1-10.6,0.1-15.9,0c-18.7-0.2-31.9-15.6-29.8-34.1c2.7-24.6,4.9-49.1,7.5-73.7
			c0.3-3.1-1-4.6-3.5-5.7c-17.3-7.3-17.7-9.1-14.4-29.5c3.6-22.5,9.1-44.5,21.2-64.2c8.6-14,19.7-25.1,36.6-28.5
			c2.2-0.5,4.4-0.7,6.7-0.8c9.9-0.3,13.4,3.1,13.4,12.9C511.6,571.8,511.6,590.4,511.6,609z M491.1,610.5c0-13.9,0-27.8,0-41.7
			c0-1.5,0.9-3.6-1-4.4c-1.6-0.7-3.1,0.8-4.4,1.7c-6.5,4.5-11.1,10.8-14.8,17.7c-8.6,16-12.7,33.5-16.1,51.2c-1.2,6.2,0.7,9,6,11.1
			c4.9,2,9.8,4.3,11.7,10.1c0.6,1.9,2.5,1.9,4.1,1.9c2.9,0,5.7-0.2,8.6,0.1c4.5,0.4,6.2-1.3,6.1-5.9
			C490.9,638.3,491.1,624.4,491.1,610.5z M481.6,756.2c15.5,0,17.8-2.7,16.1-18c-2-17.6-3.8-35.3-5.1-53c-0.4-5.5-2.4-6.8-7.5-6.8
			c-12.9,0.2-13.2-0.1-14.7,12.8c-2.1,17.6-3.8,35.3-5.4,52.9c-0.7,7.6,3,11.5,10.5,12.1C477.5,756.3,479.6,756.2,481.6,756.2z"/>
	</g>
</g>
</svg>
