<?xml version="1.0" encoding="utf-8"?>
<!-- Generator: Adobe Illustrator 24.0.2, SVG Export Plug-In . SVG Version: 6.00 Build 0)  -->
<svg version="1.1" id="Camada_1" xmlns="http://www.w3.org/2000/svg" xmlns:xlink="http://www.w3.org/1999/xlink" x="0px" y="0px"
	 viewBox="0 0 1080 1080" style="enable-background:new 0 0 1080 1080;" xml:space="preserve">
<style type="text/css">
	.st0{fill:#D6D6D6;}
	.st1{display:none;}
	.st2{display:inline;fill:#FFFFFF;}
	.st3{display:inline;}
	.st4{fill:#FFFFFF;}
	.st5{fill:#E26060;}
</style>
<g id="Camada_1_1_">
	<g>
		<circle class="st0" cx="540" cy="540" r="540"/>
	</g>
</g>
<g id="check" class="st1">
	<path class="st2" d="M464,627.9c3.1-4.6,5.1-8.8,8.1-11.9c83.8-84,167.7-167.8,251.5-251.8c13.8-13.8,29.1-21.3,48.8-15.3
		c29.2,8.8,40.9,43.4,22.9,68c-3,4.1-6.7,7.9-10.3,11.5C690,523.6,594.9,618.7,499.8,713.8c-26,26-49.4,25.9-75.5-0.3
		c-44.2-44.2-88.4-88.3-132.4-132.5c-18-18-20.7-40.7-7.8-59.2c15.4-22,45.4-25.9,66-7.4c15.4,13.8,29.5,29,44.2,43.6
		C416.4,580.2,438.6,602.4,464,627.9z"/>
</g>
<g id="cook" class="st1">
	<g class="st3">
		<path class="st4" d="M486.1,637.5c2-9.2,0.3-15-7.9-20.6c-25-17.2-39.4-41.6-44-71.7c-0.2-1.3-0.5-2.6-0.8-3.8
			c-23.6-1.6-43.3-17.6-43.4-44.4c-0.1-22.8,15.5-38.3,42.6-43c0.8-6.6,0.9-11.6-6.7-16.3c-20.4-12.3-19-42,1.9-53.9
			c4.3-2.4,5-5,5.3-9.3c1.3-20.1-4.9-36.9-18.2-52.3c-19.1-22.1-18.9-55-1.3-78.5c17.7-23.7,49.1-32.3,76.3-20.7
			c4.3,1.9,6.9,1.4,10.5-1.6c23.4-19.3,57.1-19.2,80.5,0.1c3.4,2.8,5.7,3.5,9.9,1.7c27.6-11.9,59.1-3.3,76.9,20.6
			c17.9,24.2,17.3,57.7-2.8,80.1c-14.2,15.8-18.2,33.9-16.6,54.1c0.1,1.7,1.9,3.8,3.5,4.7c11.3,6.3,17.7,15.8,17.7,28.8
			c0,13-6.2,22.8-17.8,28.6c-6.7,3.4-2.2,9-3.9,14c14.7,1.2,26.8,6.5,35.3,18.5c5.9,8.4,8.6,17.7,8,27.9c-1.3,22-17.2,37-43.2,40.6
			c-0.7,3.5-1.4,7.2-2.2,10.8c-5.8,27-19.7,49-42.3,64.7c-7.8,5.4-11.1,10.8-8,20.8c1.5,0,3.9,0,6.2,0c21.7,0.4,43.6-0.5,65.1,1.6
			c60.5,5.8,114.7,59.5,119.6,120.1c2.8,34.5,1.4,69.4,1.6,104.1c0,6.7-4.4,10.5-11.2,10.9c-1.8,0.1-3.6,0-5.4,0
			c-154,0-307.9,0-461.9,0c-13.7,0-16.4-2.8-16.4-16.5c0-26.2,0-52.4,0-78.7c0.1-70.4,48-128,117.5-139.4c18.4-3,37.5-1.6,56.3-2.1
			C473.3,637.4,479.5,637.5,486.1,637.5z M572.9,852.5c0-37,0.2-73.3-0.1-109.6c-0.1-9.7-5-17.5-12.7-23.5
			c-6.4-4.9-12.8-9.9-19.4-14.5c-2.7-1.8-5.9-3.3-9-3.9c-16.9-3.2-29.7-12.1-38-27.1c-2.6-4.6-4.2-9.7-6.4-14.9c-17.6,0-35.3,0-53,0
			c-67.1,0.2-119.3,52.4-119.5,119.5c-0.1,22.6,0,45.3,0,67.9c0,1.9,0.2,3.9,0.4,6C401.1,852.5,486.6,852.5,572.9,852.5z
			 M766.6,852.6c0-2.1,0-3.6,0-5.2c0-24,0.2-48-0.1-71.9c-0.6-52.9-37.2-99.3-88.5-112.6c-27.8-7.2-56.2-2.3-84.5-4.2
			c-4.1,16.7-13.5,28.9-28.3,37.3c1.4,1.2,2.3,2,3.2,2.6c18.8,12.9,26.7,30.8,26.2,53.4c-0.6,31.1-0.2,62.3-0.2,93.4
			c0,2.3,0,4.7,0,7.1C652.2,852.6,708.9,852.6,766.6,852.6z M627.3,379c0-8.1-0.6-15.7,0.1-23.2c1.7-17.8,10.1-32.5,21.6-46
			c14.1-16.6,13.3-39.9-0.9-56c-14.2-16-37.1-18.9-55.6-7.1c-8.9,5.7-12.3,5.2-19.5-3c-17.3-19.9-47.2-20-64.5-0.3
			c-7.6,8.7-10.4,9.1-20.5,2.8c-24-15-55.4-3.4-63.8,23.6c-4.7,15.4-1.5,29.4,9.1,41.3c11.6,13.2,19.1,28.2,20.7,45.7
			c0.7,7.3,0.1,14.6,0.1,22.3C512.1,379,569,379,627.3,379z M455.1,444c-0.2,1.7-0.5,3.4-0.5,5c0,27.8-0.1,55.6,0.1,83.4
			c0,5.3,0.8,10.8,2,16c9.6,42.8,50.1,72.2,92.3,67.3c44.8-5.2,77.5-41.1,77.7-85.8c0.2-26.7,0-53.3,0-80c0-1.9-0.3-3.8-0.4-5.9
			C569.1,444,512.4,444,455.1,444z M540.7,400.8c-30.7,0-61.4,0-92.1,0c-2,0-4.1-0.2-6,0.2c-5.8,1.1-9.3,4.6-9.3,10.6
			c0,6,3.5,9.5,9.3,10.6c2,0.4,4,0.2,6,0.2c61.4,0,122.8,0,184.3,0c2,0,4.1,0.2,6-0.2c5.8-1.1,9.3-4.6,9.3-10.6s-3.5-9.5-9.3-10.6
			c-2-0.4-4-0.2-6-0.2C602.1,400.8,571.4,400.8,540.7,400.8z M508.5,632.6c0,6.8-0.3,12.4,0,17.9c0.9,15.4,13.3,28.1,28.6,29.8
			c15.6,1.7,30.8-8.3,34.4-23.7c1.7-7.5,1.3-15.4,2-24.2C551.3,639,530.2,639,508.5,632.6z M432.8,476.5
			c-12.5,0.3-21.6,9.8-21.2,21.9c0.4,11.5,9.9,20.5,21.2,20.1C432.8,504.5,432.8,490.5,432.8,476.5z M648.7,476.4
			c0,14.4,0,28.4,0,42.4c12.6-1,20.9-9.7,21.1-21.3C670,488.3,661.5,476,648.7,476.4z"/>
		<path class="st4" d="M529.8,766.6c-11.7-0.1-21.4-9.8-21.4-21.5c0-12,9.9-21.8,22-21.5c11.7,0.2,21.2,10.1,21,21.8
			C551.3,757.1,541.5,766.7,529.8,766.6z"/>
		<path class="st4" d="M508.4,808.7c0.5-11.7,10.5-20.9,22.3-20.5c11.7,0.4,21,10.5,20.7,22.1c-0.3,11.9-10.7,21.5-22.7,20.8
			C517.1,830.5,507.9,820.3,508.4,808.7z"/>
	</g>
</g>
<g id="moto" class="st1">
	<g class="st3">
		<path class="st4" d="M251.5,315.6c3.8-9.5,11-12.7,21-12.6c42.4,0.3,84.9,0.1,127.3,0.1c15,0,20.8,5.8,20.9,20.8
			c0,32.5,0,65,0,97.5c0,16.9,0,17,16.7,16.9c18.1-0.1,34.5,5,49.1,15.6c23.2,16.9,35.2,39.9,35.7,68.7c0.1,4.5-1.4,8.4-4.3,11.9
			c-12.6,14.8-20.3,32-24.7,50.6c-3,12.7,4.4,21.9,17.5,22.1c15.6,0.2,31.2,0.1,46.8,0.1c9.4,0,18.8-0.2,28.2,0.1
			c4.6,0.1,6.3-1.5,6.2-6.2c-0.2-13.7-0.1-27.4-0.1-41.1c0-46.8,0.3-93.5-0.1-140.3c-0.1-18.9-2.5-37.5-11.5-54.6
			c-7.4-14-18.3-23.7-34-27c-3.6-0.8-5.1-2.5-5-6.1c0.2-7.5,0-15,0-22.5c0-6.1,1-6.9,7-6c23.7,3.8,42.2,15.8,56,35.3
			c1,1.4,2.1,2.7,2.8,4.2c2,4.2,4.2,4.6,8.2,1.9c8.3-5.6,17.6-8.3,27.7-8.1c10.7,0.1,21.4,0,32.1,0c12,0.1,18.5,6.5,18.5,18.5
			c0.1,21.8,0,43.6,0.1,65.3c0,3.9-0.6,7.6-3.1,10.6c-2.3,2.8-1.3,4.4,0.9,6.6c25,24.7,36.9,54.6,36.1,89.7
			c-0.3,13.1,0.1,26.3-0.1,39.4c-0.1,4.4,1,6.3,5.9,6.5c46.9,2,87.6,39.1,94.4,85.7c8.5,57.9-31.1,109.8-89.3,117
			c-43.1,5.3-87.6-20.4-104.1-60.6c-2.1-5.2-4.9-6.8-10.4-6.8c-55.8,0.2-111.5,0.2-167.3,0c-5.6,0-8,1.9-10.4,7
			c-16.9,35.8-45.1,57.2-84.6,60.3c-41.2,3.3-73.2-13.9-95.6-48.8c-7.7-11.9-11.2-25.3-14.3-38.9c0-9,0-18,0-27
			c0.3-0.7,0.7-1.4,0.8-2.1c5.7-32.3,22.7-56.7,51.1-73.1c4.3-2.5,3.6-4.8,1.4-8.1c-10.5-16-24.5-28.4-40.8-38
			c-5.2-3.1-9.5-6.5-12.5-11.7C251.5,457.6,251.5,386.6,251.5,315.6z M319,541c8.6,9.1,15.2,19.1,21.1,29.6c1.6,2.8,4,2.9,6.8,2.9
			c7.7-0.1,15.4-0.1,23,1.1c45.5,7.2,82.8,48.4,84.4,93.9c0.2,5.6,2.6,6.3,7.2,6.3c61.8-0.1,123.5,0.2,185.3-0.2
			c23.8-0.2,47.6-2.6,70.5-10c20.3-6.5,38.7-16.2,52.7-33c3.5-4.3,2.7-6.5-1.2-9.5c-16.2-12.2-34.2-16.5-54.1-13.3
			C701.3,611,693,603.6,693,590c0-21.6,0.1-43.2,0-64.8c-0.1-25.5-9-47.3-28-64.6c-9.8-9-21.2-15.4-34.2-18.8c-3.8-1-5.3,0.1-5.1,4
			c0.1,1.7,0,3.4,0,5.1c0,57.3,0,114.5,0,171.8c0,12.2-6.6,18.9-18.7,18.9c-33.2,0-66.5,0.2-99.7,0c-30.6-0.2-54.5-29.3-48.9-59.3
			c2.2-12.1,6.3-23.6,11.3-34.7c3.2-7.2,3.2-7.3-4.7-7.3c-46.6,0-93.1,0-139.7,0C323.4,540,321.5,539.5,319,541z M352.9,607.6
			c-36.5,0-67.2,30.5-67.4,67.1c-0.3,36.5,30.7,67.7,67.4,67.7c36.4,0,67.2-30.6,67.5-67.1C420.5,638.7,389.6,607.6,352.9,607.6z
			 M386.6,387.9c0-15-0.1-30,0-45.1c0-4-1.3-5.8-5.5-5.7c-7.9,0.2-15.8,0.1-23.7,0.1c-3,0-4.5,1.3-4.4,4.4c0,4.3,0.1,8.6-0.1,13
			c-0.5,9.6-7.4,16.2-16.7,16.4c-9.5,0.1-16.7-6.6-17.2-16.4c-0.2-4.1-0.2-8.3-0.1-12.4c0.1-3.6-1.5-5-5.1-5c-7.5,0.1-15,0.2-22.5,0
			c-4.8-0.2-6.1,1.9-6,6.4c0.1,29.5,0.2,59,0,88.4c0,4.9,1.5,6.6,6.5,6.5c29.5-0.2,59-0.2,88.4,0c5,0,6.5-1.7,6.4-6.6
			C386.4,417.2,386.5,402.5,386.6,387.9z M385,505.9c31.1,0,62.3,0,93.4,0c6.1,0,6.5-0.7,3.7-5.9c-7.9-14.6-19.9-23.8-36.3-26.5
			c-13.4-2.2-27-0.9-40.5-1c-37.5-0.2-75.1,0-112.6-0.2c-5.5,0-7.9,1.4-7.5,7.2c0.5,6.4,0.4,12.8,0,19.1c-0.4,5.7,1.6,7.4,7.3,7.4
			C323.4,505.7,354.2,505.9,385,505.9z M794.4,673.4c-0.3-2.2-0.7-6-1.2-9.7c-0.5-3.8-1.9-4-4.6-1.4c-5.8,5.7-12,10.8-18.7,15.3
			c-28.9,19.3-61.6,26.8-95.5,30.1c-5.8,0.6-6,0.6-2.6,5.7c15.5,23.4,46.3,34.3,73.9,26.1C774.4,731,794.4,704.4,794.4,673.4z
			 M659.2,387.7c0-18,0-18-16.9-16.7c-9.5,0.7-17,8.6-16.5,17.3c0.5,11.3,9.5,16.6,27.3,16.1c6.1-0.1,6.1-0.1,6.1-14
			C659.2,389.5,659.2,388.6,659.2,387.7z"/>
		<path class="st4" d="M369.9,674.9c0.1,9.7-7.3,17.1-16.9,17.2c-9.7,0.1-17.1-7.3-17.2-16.9c-0.1-9.7,7.3-17.1,16.9-17.2
			C362.4,657.9,369.9,665.3,369.9,674.9z"/>
	</g>
</g>
<g id="pedido">
	<g>
		<path class="st4" d="M843.6,294.2c0,181.4,0,362.7,0.1,544.1c0,4.4-1,5.4-5.4,5.4c-195.5-0.1-391-0.1-586.5-0.1
			c-8.1-4-12.3-10.2-12.3-19.6c0.1-173.1,0-346.1,0.1-519.1c0-35.9,29.4-65.3,65.3-65.3c157.9-0.1,315.8,0,473.8,0
			c12.7,0,24.4,3.6,35,10.5C830,260.4,839.2,275.7,843.6,294.2z M541.9,411.4c-85.8,0-171.7,0-257.5,0c-8.6,0-8.6,0-8.6,8.4
			c0,126.5,0,253,0,379.5c0,8.4,0,8.4,8.6,8.4c171.5,0,343,0,514.5,0c8.9,0,8.9,0,8.9-8.7c0-126.3,0-252.6,0-378.9
			c0-8.7,0-8.7-8.9-8.7C713.2,411.4,627.6,411.4,541.9,411.4z M541.8,375.1c85.5,0,170.9,0,256.4,0c9.6,0,9.6,0,9.6-9.8
			c0-18.5,0-36.9,0-55.4c-0.1-21.6-12.5-34-34.1-34c-154.6,0-309.2,0-463.8,0c-21.6,0-34,12.5-34,34.1c0,18.7,0,37.3,0,56
			c0,9.2,0,9.2,9,9.2C370.5,375.1,456.1,375.1,541.8,375.1z"/>
		<path class="st4" d="M408.8,609.4c-13,0-25.9,0.2-38.9,0c-23.7-0.4-43.7-20.5-44.3-44.3c-0.1-5.7-0.2-11.4,0-17.1
			c0.1-3.9-1.4-5.5-5.5-5.8c-11.6-0.9-18.5-8.2-18.1-18.9c0.3-9.9,7.7-17.2,18.6-17.2c5.5,0,6.3-3.1,7.3-7.2
			c8.4-31.7,28.5-52.8,60.1-61.1c45.2-11.9,89.4,14.9,101.3,60.4c1.4,5.3,3.1,7.9,9.2,7.9c9.5,0,16.9,8.3,17.1,17.6
			c0.2,9.4-6.9,17.6-16.5,18.2c-5.4,0.3-7.2,2.4-7,7.6c0.2,5.7-0.2,11.4-0.6,17.1c-1.6,24-21,42.4-45,42.7
			C434,609.6,421.4,609.4,408.8,609.4C408.8,609.4,408.8,609.4,408.8,609.4z M409.2,542.3c-13.3,0-26.7,0.1-40-0.1
			c-4.8-0.1-6.9,1.7-6.7,6.5c0.2,4.5-0.1,9,0.1,13.5c0.3,7,3.6,10.7,10.6,10.7c23.7,0.2,47.5,0.2,71.2,0c6.7-0.1,10.4-4.2,10.7-10.9
			c0.2-4.3-0.2-8.7,0.1-12.9c0.5-5.6-2-7.1-7.3-7C435.1,542.5,422.2,542.3,409.2,542.3z M408.6,506c12.8,0,25.5,0,38.3,0
			c5.8,0,6.4-1,4.4-6.1c-6.6-16.4-24.6-28.2-42.9-28c-18.5,0.2-36.2,12.1-42.6,28.6c-1.6,4.2-0.6,5.7,3.9,5.6
			C382.7,505.9,395.7,506,408.6,506z"/>
		<path class="st4" d="M484.4,737.8c-0.1,9.7-5.5,16-16.1,18.6c-21.5,5.3-43.1,10.4-64.6,15.6c-15.3,3.7-30.5,7.4-45.8,10.9
			c-16.9,3.9-28-7.1-24-24c8.7-36.7,17.4-73.3,26.3-109.9c3.6-14.9,13.7-20.1,27.9-14.6c45.3,17.6,76.7,49.2,94.3,94.6
			C483.7,732,484.7,735,484.4,737.8z M380.2,739.8c0,0,0.8-0.1,1.5-0.3c17.6-4.2,35.1-8.6,52.7-12.6c5.3-1.2,5.3-3.2,2.8-7.2
			c-10.3-16.4-23.7-29.7-40-40.1c-4.7-3-6.2-1.7-7.3,3.3c-3.4,15.1-7.2,30.2-10.8,45.2c-0.7,3-1.5,6.1-2.1,9.2
			C376.7,739.1,377,740.5,380.2,739.8z"/>
		<path class="st4" d="M671.5,505.5c-25.9,0-51.8,0-77.7,0c-2.4,0-4.7,0.1-7.1-0.2c-9.4-1.2-16.4-8.6-16.9-17.6
			c-0.4-8.9,6.1-16.9,15.5-18.7c2.7-0.5,5.5-0.6,8.2-0.6c52,0,104,0,156,0c2,0,3.9,0,5.9,0.1c11.1,1.1,18.2,9,17.8,19.5
			c-0.4,10-8.3,17.2-19.3,17.4c-13.7,0.2-27.5,0.1-41.2,0.1C699,505.5,685.2,505.5,671.5,505.5z"/>
		<path class="st4" d="M671.5,576.3c-26.1,0-52.2,0-78.3,0c-2.4,0-4.7,0.1-7-0.3c-9.4-1.5-16.2-9.1-16.3-18.1
			c-0.1-8.7,6.3-16.3,15.5-18.2c2.5-0.5,5.1-0.6,7.6-0.6c52.4,0,104.8,0,157.2,0c2,0,3.9,0,5.9,0.2c10.8,1.3,17.7,9.1,17.2,19.5
			c-0.4,9.8-8.1,17.1-18.7,17.4c-13.3,0.3-26.7,0.1-40,0.1C700.2,576.3,685.8,576.3,671.5,576.3z"/>
		<path class="st4" d="M671.5,725.3c27.9,0,55.8-0.1,83.7,0c10.2,0.1,17.7,7.5,18.1,17.2c0.4,10-6.2,17.7-16.3,19
			c-2.7,0.3-5.5,0.6-8.2,0.6c-51.5,0-103,0-154.4,0c-8.5,0-16.6-0.9-21.7-9.1c-7.5-12.3,0.9-27.5,15.7-27.7
			c22.6-0.3,45.2-0.1,67.8-0.1C661.2,725.2,666.3,725.2,671.5,725.3C671.5,725.3,671.5,725.3,671.5,725.3z"/>
		<path class="st4" d="M619.3,654.5c9.8,0,19.6-0.1,29.4,0c10.8,0.1,18.7,7.3,19.3,17.4c0.6,9.7-6.9,18.3-17.8,18.9
			c-21,1.1-41.9,1.1-62.9,0c-10.8-0.6-18.2-9.3-17.6-19c0.6-10,8.6-17.1,19.5-17.2C599.3,654.5,609.3,654.5,619.3,654.5z"/>
		<path class="st4" d="M737.8,691.7c-6.3-0.3-12.6-0.3-18.8-1c-9.2-1.1-16.2-9.4-15.8-18.3c0.3-9.4,7.8-17.4,17.2-17.7
			c12-0.4,23.9-0.3,35.9,0c9.4,0.3,16.6,7.8,17,17c0.4,9.8-6,17.6-15.5,19.1c-1.5,0.2-3.1,0.5-4.7,0.5c-5.1,0.1-10.2,0-15.3,0
			C737.8,691.4,737.8,691.5,737.8,691.7z"/>
		<path class="st4" d="M423.9,306.9c31,0,62-0.1,93.1,0c11.8,0,19.8,6.8,20.5,16.9c0.7,9.8-5.1,17.5-14.9,19.6
			c-2.8,0.6-5.8,0.6-8.8,0.6c-59.9,0-119.8,0-179.7,0c-3.1,0-6.3,0.1-9.4-0.7c-9.1-2.3-14.6-9.2-14.4-18.3
			c0.1-8.7,5.8-15.5,14.7-17.4c2.8-0.6,5.8-0.6,8.8-0.7C363.8,306.9,393.8,306.9,423.9,306.9z"/>
		<path class="st4" d="M702.5,325.6c-0.1,10.2-8.5,18.5-18.5,18.2c-10.1-0.3-18-8.6-17.8-18.9c0.2-9.9,8.4-17.9,18.2-17.9
			C694.5,307.1,702.6,315.4,702.5,325.6z"/>
		<path class="st4" d="M773.3,325.6c-0.1,10.2-8.5,18.5-18.4,18.2c-10.1-0.2-18-8.6-17.8-18.9c0.2-9.9,8.3-18,18.1-17.9
			C765.2,307,773.3,315.4,773.3,325.6z"/>
	</g>
</g>
<g id="x" class="st1">
	<g class="st3">
		<g>
			<path class="st5" d="M501.8,65c26,0,52,0,78.1,0c1.8,0.4,3.6,1.1,5.4,1.2c85.5,8.1,164.3,35.7,232.7,87.6
				c158.8,120.5,225.8,281.1,190,477.2c-46.3,253.9-287,419.8-542,380.5C274.7,982,116.2,832.7,75.4,644c-4.6-21.2-7-42.7-10.4-64.1
				c0-26,0-52,0-78.1c1.6-11.3,3.1-22.7,4.8-34C99.7,274.2,247.5,116.9,438.6,75.2C459.5,70.7,480.7,68.4,501.8,65z M355.3,688.1
				c0.1,21.7,16.6,38.1,38.3,38.3c12.4,0.1,21.8-5.3,30.3-13.8c35.6-35.8,71.4-71.4,107.1-107.1c9.9-9.9,9.9-9.9,20.2,0.3
				c24.5,24.5,49,49.1,73.6,73.6c12,12,23.9,24.3,36.2,36.1c12.4,11.9,28.8,14.4,43.8,7.3c14.8-7,22.8-21.5,21.5-38.8
				c-0.8-10.9-6.6-19-14-26.4C676,621.4,640,585.1,603.7,549.2c-6.2-6.1-7.3-10.4-0.3-16.4c6.3-5.4,11.9-11.7,17.8-17.6
				c30.9-30.9,61.8-61.7,92.6-92.7c13.2-13.3,16.3-29.6,9-45.1c-11.4-24.6-42.9-29.9-63-10.1c-33.9,33.5-67.5,67.4-101.3,101.1
				c-4.2,4.2-8.4,8.2-12.5,12.5c-3.4,3.6-6.7,4.1-10.3,0.2c-1.9-2-4-3.9-5.9-5.9c-35.7-35.7-71.5-71.3-107.1-107.1
				c-11.6-11.6-25.1-15.9-40.7-11.1c-28.1,8.6-36.3,43-15.2,64.4c35,35.5,70.5,70.6,105.7,105.9c15,15.1,15.1,11.8,0.3,26.7
				c-34.8,34.9-69.6,69.7-104.5,104.5C360.2,666.7,354.9,676.1,355.3,688.1z"/>
		</g>
	</g>
</g>
</svg>
