<?xml version="1.0" encoding="utf-8"?>
<!-- Generator: Adobe Illustrator 24.0.2, SVG Export Plug-In . SVG Version: 6.00 Build 0)  -->
<svg version="1.1" id="Camada_1" xmlns="http://www.w3.org/2000/svg" xmlns:xlink="http://www.w3.org/1999/xlink" x="0px" y="0px"
	 viewBox="0 0 1080 1080" style="enable-background:new 0 0 1080 1080;" xml:space="preserve">
<style type="text/css">
	.st0{fill:#5EE584;}
	.st1{display:none;}
	.st2{display:inline;fill:#FFFFFF;}
	.st3{display:inline;}
	.st4{fill:#FFFFFF;}
</style>
<g id="Camada_1_1_">
	<g>
		<circle class="st0" cx="540" cy="540" r="540"/>
	</g>
</g>
<g id="check" class="st1">
	<path class="st2" d="M464,627.9c3.1-4.6,5.1-8.8,8.1-11.9c83.8-84,167.7-167.8,251.5-251.8c13.8-13.8,29.1-21.3,48.8-15.3
		c29.2,8.8,40.9,43.4,22.9,68c-3,4.1-6.7,7.9-10.3,11.5C690,523.6,594.9,618.7,499.8,713.8c-26,26-49.4,25.9-75.5-0.3
		c-44.2-44.2-88.4-88.3-132.4-132.5c-18-18-20.7-40.7-7.8-59.2c15.4-22,45.4-25.9,66-7.4c15.4,13.8,29.5,29,44.2,43.6
		C416.4,580.2,438.6,602.4,464,627.9z"/>
</g>
<g id="cook" class="st1">
	<g class="st3">
		<path class="st4" d="M486.1,637.5c2-9.2,0.3-15-7.9-20.6c-25-17.2-39.4-41.6-44-71.7c-0.2-1.3-0.5-2.6-0.8-3.8
			c-23.6-1.6-43.3-17.6-43.4-44.4c-0.1-22.8,15.5-38.3,42.6-43c0.8-6.6,0.9-11.6-6.7-16.3c-20.4-12.3-19-42,1.9-53.9
			c4.3-2.4,5-5,5.3-9.3c1.3-20.1-4.9-36.9-18.2-52.3c-19.1-22.1-18.9-55-1.3-78.5c17.7-23.7,49.1-32.3,76.3-20.7
			c4.3,1.9,6.9,1.4,10.5-1.6c23.4-19.3,57.1-19.2,80.5,0.1c3.4,2.8,5.7,3.5,9.9,1.7c27.6-11.9,59.1-3.3,76.9,20.6
			c17.9,24.2,17.3,57.7-2.8,80.1c-14.2,15.8-18.2,33.9-16.6,54.1c0.1,1.7,1.9,3.8,3.5,4.7c11.3,6.3,17.7,15.8,17.7,28.8
			c0,13-6.2,22.8-17.8,28.6c-6.7,3.4-2.2,9-3.9,14c14.7,1.2,26.8,6.5,35.3,18.5c5.9,8.4,8.6,17.7,8,27.9c-1.3,22-17.2,37-43.2,40.6
			c-0.7,3.5-1.4,7.2-2.2,10.8c-5.8,27-19.7,49-42.3,64.7c-7.8,5.4-11.1,10.8-8,20.8c1.5,0,3.9,0,6.2,0c21.7,0.4,43.6-0.5,65.1,1.6
			c60.5,5.8,114.7,59.5,119.6,120.1c2.8,34.5,1.4,69.4,1.6,104.1c0,6.7-4.4,10.5-11.2,10.9c-1.8,0.1-3.6,0-5.4,0
			c-154,0-307.9,0-461.9,0c-13.7,0-16.4-2.8-16.4-16.5c0-26.2,0-52.4,0-78.7c0.1-70.4,48-128,117.5-139.4c18.4-3,37.5-1.6,56.3-2.1
			C473.3,637.4,479.5,637.5,486.1,637.5z M572.9,852.5c0-37,0.2-73.3-0.1-109.6c-0.1-9.7-5-17.5-12.7-23.5
			c-6.4-4.9-12.8-9.9-19.4-14.5c-2.7-1.8-5.9-3.3-9-3.9c-16.9-3.2-29.7-12.1-38-27.1c-2.6-4.6-4.2-9.7-6.4-14.9c-17.6,0-35.3,0-53,0
			c-67.1,0.2-119.3,52.4-119.5,119.5c-0.1,22.6,0,45.3,0,67.9c0,1.9,0.2,3.9,0.4,6C401.1,852.5,486.6,852.5,572.9,852.5z
			 M766.6,852.6c0-2.1,0-3.6,0-5.2c0-24,0.2-48-0.1-71.9c-0.6-52.9-37.2-99.3-88.5-112.6c-27.8-7.2-56.2-2.3-84.5-4.2
			c-4.1,16.7-13.5,28.9-28.3,37.3c1.4,1.2,2.3,2,3.2,2.6c18.8,12.9,26.7,30.8,26.2,53.4c-0.6,31.1-0.2,62.3-0.2,93.4
			c0,2.3,0,4.7,0,7.1C652.2,852.6,708.9,852.6,766.6,852.6z M627.3,379c0-8.1-0.6-15.7,0.1-23.2c1.7-17.8,10.1-32.5,21.6-46
			c14.1-16.6,13.3-39.9-0.9-56c-14.2-16-37.1-18.9-55.6-7.1c-8.9,5.7-12.3,5.2-19.5-3c-17.3-19.9-47.2-20-64.5-0.3
			c-7.6,8.7-10.4,9.1-20.5,2.8c-24-15-55.4-3.4-63.8,23.6c-4.7,15.4-1.5,29.4,9.1,41.3c11.6,13.2,19.1,28.2,20.7,45.7
			c0.7,7.3,0.1,14.6,0.1,22.3C512.1,379,569,379,627.3,379z M455.1,444c-0.2,1.7-0.5,3.4-0.5,5c0,27.8-0.1,55.6,0.1,83.4
			c0,5.3,0.8,10.8,2,16c9.6,42.8,50.1,72.2,92.3,67.3c44.8-5.2,77.5-41.1,77.7-85.8c0.2-26.7,0-53.3,0-80c0-1.9-0.3-3.8-0.4-5.9
			C569.1,444,512.4,444,455.1,444z M540.7,400.8c-30.7,0-61.4,0-92.1,0c-2,0-4.1-0.2-6,0.2c-5.8,1.1-9.3,4.6-9.3,10.6
			c0,6,3.5,9.5,9.3,10.6c2,0.4,4,0.2,6,0.2c61.4,0,122.8,0,184.3,0c2,0,4.1,0.2,6-0.2c5.8-1.1,9.3-4.6,9.3-10.6s-3.5-9.5-9.3-10.6
			c-2-0.4-4-0.2-6-0.2C602.1,400.8,571.4,400.8,540.7,400.8z M508.5,632.6c0,6.8-0.3,12.4,0,17.9c0.9,15.4,13.3,28.1,28.6,29.8
			c15.6,1.7,30.8-8.3,34.4-23.7c1.7-7.5,1.3-15.4,2-24.2C551.3,639,530.2,639,508.5,632.6z M432.8,476.5
			c-12.5,0.3-21.6,9.8-21.2,21.9c0.4,11.5,9.9,20.5,21.2,20.1C432.8,504.5,432.8,490.5,432.8,476.5z M648.7,476.4
			c0,14.4,0,28.4,0,42.4c12.6-1,20.9-9.7,21.1-21.3C670,488.3,661.5,476,648.7,476.4z"/>
		<path class="st4" d="M529.8,766.6c-11.7-0.1-21.4-9.8-21.4-21.5c0-12,9.9-21.8,22-21.5c11.7,0.2,21.2,10.1,21,21.8
			C551.3,757.1,541.5,766.7,529.8,766.6z"/>
		<path class="st4" d="M508.4,808.7c0.5-11.7,10.5-20.9,22.3-20.5c11.7,0.4,21,10.5,20.7,22.1c-0.3,11.9-10.7,21.5-22.7,20.8
			C517.1,830.5,507.9,820.3,508.4,808.7z"/>
	</g>
</g>
<g id="moto">
	<g>
		<path class="st4" d="M212,284.9c4.3-10.8,12.5-14.4,23.8-14.3c48.2,0.3,96.5,0.1,144.7,0.1c17,0,23.7,6.6,23.7,23.6
			c0,36.9,0,73.9,0,110.8c0,19.2,0,19.3,19,19.3c20.5-0.1,39.3,5.7,55.8,17.7c26.4,19.2,40,45.3,40.5,78.1c0.1,5.1-1.6,9.6-4.9,13.5
			c-14.3,16.8-23.1,36.3-28.1,57.5c-3.4,14.4,5,24.9,20,25.1c17.7,0.2,35.4,0.1,53.1,0.1c10.7,0,21.3-0.2,32,0.1
			c5.3,0.1,7.1-1.7,7-7c-0.3-15.6-0.1-31.2-0.1-46.7c0-53.1,0.3-106.3-0.1-159.5c-0.2-21.4-2.9-42.6-13.1-62
			c-8.4-16-20.7-26.9-38.7-30.7c-4-0.9-5.8-2.8-5.7-7c0.2-8.5,0-17.1,0.1-25.6c0.1-6.9,1.2-7.9,8-6.8c26.9,4.4,48,18,63.7,40.2
			c1.1,1.6,2.3,3.1,3.1,4.8c2.2,4.8,4.7,5.2,9.3,2.1c9.4-6.3,20-9.4,31.4-9.3c12.2,0.1,24.3,0,36.5,0.1c13.6,0.1,21,7.4,21.1,21.1
			c0.1,24.8,0,49.5,0.1,74.3c0,4.4-0.7,8.7-3.5,12c-2.6,3.1-1.5,5,1,7.5c28.5,28,41.9,62.1,41,102c-0.3,14.9,0.1,29.9-0.1,44.8
			c-0.1,5,1.1,7.2,6.7,7.4c53.3,2.3,99.6,44.4,107.3,97.5c9.7,65.8-35.4,124.8-101.5,133c-49,6-99.6-23.2-118.3-68.9
			c-2.4-5.9-5.6-7.8-11.8-7.8c-63.4,0.2-126.8,0.2-190.2,0c-6.3,0-9.1,2.2-11.8,7.9c-19.2,40.7-51.2,65-96.2,68.6
			c-46.8,3.8-83.2-15.8-108.6-55.4c-8.7-13.5-12.7-28.8-16.2-44.2c0-10.2,0-20.5,0-30.7c0.3-0.8,0.8-1.6,0.9-2.4
			c6.5-36.7,25.8-64.5,58.1-83.1c4.9-2.8,4.1-5.4,1.6-9.2c-12-18.2-27.8-32.3-46.4-43.3c-5.9-3.5-10.8-7.4-14.2-13.3
			C212,446.3,212,365.6,212,284.9z M288.8,541.1c9.8,10.4,17.3,21.7,23.9,33.7c1.8,3.2,4.6,3.3,7.7,3.3c8.7-0.1,17.5-0.1,26.2,1.3
			c51.7,8.2,94.1,55,95.9,106.8c0.2,6.4,2.9,7.2,8.2,7.2c70.2-0.1,140.4,0.2,210.6-0.3c27.1-0.2,54.1-3,80.2-11.4
			c23.1-7.4,44-18.4,59.9-37.5c4-4.8,3-7.4-1.4-10.8c-18.4-13.9-38.8-18.8-61.5-15.2c-15.1,2.4-24.6-6-24.6-21.5
			c0-24.5,0.1-49.1,0-73.6c-0.1-29-10.2-53.8-31.8-73.5c-11.2-10.2-24.1-17.5-38.9-21.4c-4.3-1.1-6.1,0.1-5.8,4.5
			c0.1,1.9,0,3.8,0,5.8c0,65.1,0,130.2,0,195.3c0,13.9-7.5,21.4-21.3,21.5c-37.8,0-75.6,0.2-113.3-0.1
			c-34.8-0.2-61.9-33.3-55.6-67.4c2.5-13.7,7.1-26.8,12.8-39.5c3.7-8.2,3.7-8.3-5.4-8.3c-52.9,0-105.9,0-158.8,0
			C293.8,540,291.6,539.5,288.8,541.1z M327.3,616.9c-41.5,0-76.4,34.6-76.7,76.2c-0.3,41.5,34.9,77,76.6,77
			c41.4,0,76.4-34.8,76.7-76.3C404.2,652.2,369.1,616.9,327.3,616.9z M365.6,367.1c0-17.1-0.1-34.2,0.1-51.2c0-4.6-1.4-6.6-6.3-6.5
			c-9,0.2-17.9,0.1-26.9,0.1c-3.5,0-5.1,1.5-5,5c0,4.9,0.2,9.8-0.1,14.7c-0.6,10.9-8.4,18.5-19,18.6c-10.8,0.2-19-7.5-19.6-18.7
			c-0.2-4.7-0.2-9.4-0.1-14.1c0.1-4.1-1.7-5.7-5.8-5.7c-8.5,0.1-17.1,0.3-25.6-0.1c-5.5-0.2-6.9,2.1-6.9,7.2
			c0.2,33.5,0.2,67,0,100.5c0,5.5,1.7,7.5,7.3,7.4c33.5-0.2,67-0.2,100.5,0c5.7,0,7.4-2,7.3-7.5
			C365.4,400.4,365.6,383.7,365.6,367.1z M363.8,501.2c35.4,0,70.8,0,106.2,0c6.9,0,7.4-0.8,4.2-6.7c-8.9-16.6-22.6-27.1-41.3-30.2
			c-15.2-2.5-30.7-1-46-1.1c-42.7-0.2-85.3,0-128-0.2c-6.3,0-9,1.5-8.5,8.2c0.5,7.2,0.5,14.5,0,21.7c-0.4,6.5,1.8,8.4,8.3,8.4
			C293.8,501.1,328.8,501.2,363.8,501.2z M829.2,691.7c-0.3-2.5-0.8-6.8-1.3-11c-0.5-4.3-2.2-4.6-5.2-1.6
			c-6.5,6.4-13.6,12.3-21.2,17.4c-32.9,22-70,30.4-108.6,34.3c-6.6,0.7-6.8,0.7-3,6.4c17.7,26.6,52.7,39,84,29.7
			C806.5,757.1,829.3,726.9,829.2,691.7z M675.5,366.8c0-20.4,0-20.4-19.2-18.9c-10.7,0.8-19.3,9.8-18.8,19.7
			c0.6,12.8,10.7,18.8,31.1,18.4c6.9-0.2,6.9-0.2,6.9-15.9C675.5,368.9,675.5,367.9,675.5,366.8z"/>
		<path class="st4" d="M346.7,693.3c0.1,11-8.3,19.5-19.2,19.5c-11,0.1-19.5-8.3-19.5-19.2c-0.1-11,8.3-19.5,19.2-19.5
			C338.1,674.1,346.6,682.4,346.7,693.3z"/>
	</g>
</g>
<g id="Camada_5" class="st1">
	
		<image style="display:inline;overflow:visible;enable-background:new    ;" width="512" height="512" xlink:href="B8F44669.png"  transform="matrix(0.75 0 0 0.75 348 348)">
	</image>
</g>
</svg>
