<?xml version="1.0" encoding="utf-8"?>
<!-- Generator: Adobe Illustrator 24.0.2, SVG Export Plug-In . SVG Version: 6.00 Build 0)  -->
<svg version="1.1" id="Camada_1" xmlns="http://www.w3.org/2000/svg" xmlns:xlink="http://www.w3.org/1999/xlink" x="0px" y="0px"
	 viewBox="0 0 1080 1080" style="enable-background:new 0 0 1080 1080;" xml:space="preserve">
<style type="text/css">
	.st0{fill:#5EE584;}
</style>
<path class="st0" d="M540,0C241.8,0,0,241.8,0,540c0,118.8,38.3,228.6,103.3,317.8l-65.1,194.2c0,0-2.4,5.8,3.3,4.6L244.4,992
	c84.9,55.7,186.5,88,295.6,88c298.2,0,540-241.8,540-540S838.2,0,540,0z M858.2,707c0,3.2,0,6.4-1.3,9.4c-0.3,0.7-0.4,1.6-0.5,2.3
	c-0.1,4.5-0.8,8.9-1.9,13.2c-0.6,2.3-1,4.7-1.8,6.9c-1.8,5.5-3.2,11-4.9,16.5c-1.9,6.1-4.4,12-8.4,17.1c-0.9,1.1-1.6,2.4-2.4,3.6
	c-1.1,1.6-2.1,3.3-3.4,4.6c-4.9,5.1-9.6,10.3-14.9,14.9c-5.9,5.1-12.2,9.8-18.9,14c-8.5,5.4-17.6,9.7-26.7,14.1
	c-4.1,2-8.7,3.2-13.1,4.7c-3.8,1.3-7.6,2.6-11.4,3.6c-5.4,1.4-10.7,3.4-16.4,3.3c-0.8,0-1.6,0-2.4,0.3c-4.9,1.9-10.1,1.5-15.2,1.5
	c-1,0-1.9,0-2.9,0c0,0,0,0,0,0c-2.7,0-5.4,0-8.2,0c-3,0-6-0.1-9-1.2c-2.3-0.9-4.7-0.6-7.1-0.7c-3.2-0.1-6.4-0.1-9.4-1.5
	c-0.4-0.2-0.9-0.3-1.4-0.3c-4.8-0.1-9.4-1.9-14.1-2.6c-3.4-0.5-6.8-1.9-10.1-2.9c-3.7-1.1-7.3-2.3-11-3.1
	c-5.5-1.1-10.8-2.9-16.1-4.6c-4.8-1.6-9.6-3.6-14.4-5.3c-3.2-1.1-6.4-2-9.6-3c-0.9-0.3-1.8-0.6-2.7-0.9c-4.9-1.9-9.7-4.1-14.7-5.8
	c-9.2-3.1-18-7.4-27.2-10.6c-4.4-1.5-8.5-3.7-12.7-5.6c-5.7-2.6-11.2-5.4-16.9-7.9c-4.7-2-9-4.9-13.4-7.3c-1.3-0.7-2.5-1.5-3.7-2.1
	c-8.2-3.9-15.9-8.8-23.6-13.7c-4.3-2.7-8.7-5.4-13-8.2c-2.1-1.4-4.2-2.9-6.3-4.4c-7.6-5.5-15.4-10.9-22.9-16.6
	c-5.9-4.4-11.5-9.2-17.2-13.9c-5.5-4.6-11-9.2-16.2-14.3c-4-3.9-8.6-7.1-12.6-11c-6.4-6.2-12.8-12.5-19.1-18.9
	c-5-5.1-10.2-10.2-15.2-15.3c-1-1-2-2.1-2.9-3.1c-7.7-9-15.4-18-23.1-27c-0.9-1.1-2-2-3-3.1c-1-1-2.1-2-2.9-3.1
	c-7-10-15.1-19-22.5-28.7c-4.1-5.3-8.1-10.7-11.8-16.3c-2.7-4-5.6-7.8-8.4-11.7c-4-5.6-8.3-11-12-16.8c-6-9.6-12.9-18.7-17.9-28.9
	c-2.3-4.7-5.3-9.1-7.8-13.8c-3-5.8-5.8-11.8-8.5-17.7c-5.8-12.3-10.2-25.2-14.1-38.2c-1.5-5-2.6-10.2-3.7-15.3
	c-1.2-5.1-1.2-10.5-3.1-15.5c-0.4-1.2-0.4-2.5-0.4-3.8c-0.4-14.2-0.1-28.5,0-42.7c0-0.3,0-0.7,0-1c1.1-4.6,1.7-9.4,2.7-14.1
	c0.4-2,1.1-4,1.2-6.1c0.1-2.6,1.1-5,1.9-7.4c2-6.1,4-12.1,6.2-18.1c3.1-8.4,7.6-16.2,12.1-23.9c3.4-5.8,7.2-11.3,11.5-16.5
	c1.8-2.2,3.8-4.4,5.7-6.5c3.7-4,7.4-8,11.1-11.9c4.6-4.8,9.8-8.7,15.8-11.5c2.3-1.1,4.6-2.3,6.9-3.3c3.1-1.3,6.1-2.8,9.6-2.8
	c0.5,0,1-0.1,1.4-0.3c3.6-1.7,7.5-1.6,11.3-1.7c2.7,0,5.4-0.2,8-1.1c2.3-0.8,4.8-0.8,7.1-0.3c6.5,1.5,13,1.4,19.6,1.5
	c9.9,0.1,17,4.9,21.5,13.5c3.2,6.1,6.2,12.3,9,18.5c2.4,5.4,4.4,11,6.6,16.4c2.6,6.3,5.4,12.6,8,19c3.2,7.7,6.3,15.4,9.5,23
	c2.4,5.7,4.5,11.6,7.2,17.2c1.7,3.4,3,7,4.4,10.6c4.1,10.1,8.4,20,12.2,30.2c3.4,9,2.5,17.8-2.4,26.3c-4,6.8-8.5,13.1-13.7,19
	c-1.9,2.1-3.8,4.3-5.6,6.6c-3.7,4.8-8.3,8.9-12.4,13.3c-3.9,4.2-7.4,8.8-11.1,13.2c-2.6,3.2-4.4,7.1-5.7,11
	c-1.2,3.6-0.8,7.3,0.4,10.9c0.7,2.1,1.6,4.2,2.7,6.1c3,5.1,6.2,10.1,9.3,15.1c5.3,8.8,11.4,17,17.3,25.3c4.3,6,8.5,12,13.4,17.5
	c4.3,4.9,8.3,10.1,12.3,15.3c3.3,4.2,7,7.9,10.7,11.7c2,2,4.1,4.1,5.8,6.4c1.1,1.5,2.5,3,3.9,4.2c7,5.8,13,12.8,20.1,18.5
	c6.3,5,11.9,10.6,18.4,15.3c4.3,3.1,8.3,6.5,12.6,9.6c5.8,4.2,11.5,8.6,17.8,12.2c2.6,1.5,5,3.4,7.5,5.1c0.9,0.6,1.8,1.3,2.8,1.8
	c5.6,3,11.1,6.3,16.8,9.3c8.9,4.7,18,9,27.2,13.2c7.4,3.5,15,6.4,22.7,9.1c3,1.1,6.2,1.7,9.3,2.4c1.9,0.4,3.9,0.5,5.7,0
	c5.9-1.5,11.8-2.7,16.7-6.7c2.6-2.1,5-4.3,7.2-6.9c4.7-5.3,8.3-11.4,13.4-16.3c0.2-0.2,0.4-0.5,0.6-0.7c4-5.6,8.1-11.1,11.9-16.8
	c2.4-3.6,5.3-6.8,7.6-10.5c1.3-2,2.6-4,4.1-5.9c4.4-5.5,9.1-10.7,15.8-13.6c5.2-2.3,10.5-2.5,16-1.4c6.1,1.3,11.9,3.5,17.6,6.1
	c8.8,4.1,17.9,7.8,26.6,12.2c6.1,3.1,12.4,6,18.6,9c8.3,4,16.8,7.9,25.1,12c4.7,2.3,9.4,4.8,14.1,7.2c8.4,4.2,16.8,8.6,25.3,12.5
	c4.4,2,8.5,4.3,12.5,7c2.4,1.6,3.9,3.5,4.8,6.3c1.2,3.4,1.8,6.8,1.7,10.3C858.2,699.3,858.2,703.1,858.2,707z"/>
</svg>
